inDegrees=yes
name=ik_S52_A08_T02
DataType=double
version=3
OpenSimVersion=4.3-2021-08-27-4bc7ad9
endheader
time	pelvis_tilt	pelvis_list	pelvis_rotation	pelvis_tx	pelvis_ty	pelvis_tz	hip_flexion_r	hip_adduction_r	hip_rotation_r	knee_angle_r	knee_angle_r_beta	ankle_angle_r	subtalar_angle_r	mtp_angle_r	hip_flexion_l	hip_adduction_l	hip_rotation_l	knee_angle_l	knee_angle_l_beta	ankle_angle_l	subtalar_angle_l	mtp_angle_l	lumbar_extension	lumbar_bending	lumbar_rotation	arm_flex_r	arm_add_r	arm_rot_r	elbow_flex_r	pro_sup_r	wrist_flex_r	wrist_dev_r	arm_flex_l	arm_add_l	arm_rot_l	elbow_flex_l	pro_sup_l	wrist_flex_l	wrist_dev_l
8.099999999999916	-3.693364742095998	0.3440298972397496	19.40763467701852	0	0.9399999999999999	0	42.31793666944127	-10.03883940262618	-10.12139506058825	56.00563477712273	0.9774827265302322	0	0	0	42.31793666944127	-10.03883940262618	-10.12139506058825	56.00563477712273	0.9774827265302322	0	0	0	-1.797766792282216	-2.072093922617425	3.716065415311268	31.57020942947223	-9.871017293024966	-11.97927090638272	32.23500541471961	144.1218140025764	0	0	16.11912343241604	-12.31193435217642	-15.72667058886168	55.47586617545011	111.8815707122121	0	0
8.119999999999916	-3.695841829791752	0.3499624444009964	19.34804379778318	0	0.9399999999999999	0	42.31863265581991	-10.03880430693206	-10.12132465596692	56.00545993504012	0.9774796749602197	0	0	0	42.31863265581991	-10.03880430693206	-10.12132465596692	56.00545993504012	0.9774796749602197	0	0	0	-1.798377096877187	-2.064879801235513	3.710227093299404	31.57062294634466	-9.846313510053196	-11.96926951202806	32.2740334605331	144.1035803883993	0	0	16.34505434344571	-12.37591005465048	-15.64628834514205	55.30910269858662	111.7954193125095	0	0
8.139999999999915	-3.72753161045553	0.3332839381411526	19.30952071524019	0	0.9399999999999999	0	42.31953024272286	-10.03875935629353	-10.12123426010024	56.00523310893624	0.9774757160978774	0	0	0	42.31953024272286	-10.03875935629353	-10.12123426010024	56.00523310893624	0.9774757160978774	0	0	0	-1.834083824800971	-2.069179686278932	3.704741582336896	31.65531218165582	-9.82065542938857	-11.98513290989461	32.28822268875648	144.0592781750454	0	0	16.62096403045318	-12.48590207887558	-15.69344593142876	55.12600270331792	112.0749677453887	0	0
8.159999999999915	-3.727533697182478	0.3488118747122725	19.29029431345792	0	0.9399999999999999	0	42.32030944294446	-10.03872058480828	-10.12115611262516	56.0050351012625	0.9774722602120265	0	0	0	42.32030944294446	-10.03872058480828	-10.12115611262516	56.0050351012625	0.9774722602120265	0	0	0	-1.829134219502859	-2.053387889362153	3.688563793664483	31.63423904170847	-9.843066482527355	-11.97546632175873	32.29779242871024	144.0890975338484	0	0	16.8174566631727	-12.54116384228904	-15.74870875588992	54.76099817718798	112.0432593268663	0	0
8.179999999999914	-3.718238987394963	0.3689706030750508	19.2646433884678	0	0.9399999999999999	0	42.32107018179178	-10.0386824051956	-10.121079368341	56.00484350869315	0.977468916290869	0	0	0	42.32107018179178	-10.0386824051956	-10.121079368341	56.00484350869315	0.977468916290869	0	0	0	-1.814207481310218	-2.037874755822574	3.725159577804051	31.5875667736459	-9.873810425137759	-12.00689114562095	32.3216626195331	144.027506282275	0	0	17.03195743763517	-12.52982900939324	-15.57576911650824	54.32790851296753	111.9558494246438	0	0
8.199999999999914	-3.719946133100781	0.376967827007909	19.23108058482032	0	0.9399999999999999	0	42.32126014110714	-10.03867295855797	-10.12106031984695	56.00479526449172	0.977468074270709	0	0	0	42.32126014110714	-10.03867295855797	-10.12106031984695	56.00479526449172	0.977468074270709	0	0	0	-1.813235090123837	-2.029447759536444	3.720492019592431	31.60416077191153	-9.875209506348636	-11.96669075688612	32.32438455994054	144.0374087249687	0	0	17.03611678013694	-12.52623101693479	-15.48071739954365	54.32324930471282	111.9436662978344	0	0
8.219999999999914	-3.737483855436737	0.3818917374560331	19.22427426616652	0	0.9399999999999999	0	42.32183863189589	-10.0386438571802	-10.1210018637565	56.00464997320552	0.9774655384593904	0	0	0	42.32183863189589	-10.0386438571802	-10.1210018637565	56.00464997320552	0.9774655384593904	0	0	0	-1.828558183095848	-2.019139904333861	3.742909200978047	31.63788090255939	-9.909516274796687	-11.99849729346136	32.31272118204163	144.0506444822172	0	0	17.07877348436092	-12.4998111444741	-15.34364934256999	54.37454735253706	112.0396106521	0	0
